<svg xmlns="http://www.w3.org/2000/svg" version="1.1" xmlns:xlink="http://www.w3.org/1999/xlink" xmlns:svgjs="http://svgjs.dev/svgjs" viewBox="0 0 800 800"><defs><linearGradient x1="50%" y1="0%" x2="50%" y2="100%" id="ffflurry-grad" gradientTransform="rotate(270)"><stop stop-color="hsl(238, 82%, 13%)" stop-opacity="1" offset="0%"></stop><stop stop-color="hsl(1.4, 100%, 67%)" stop-opacity="1" offset="45%"></stop><stop stop-color="hsl(167, 52%, 78%)" stop-opacity="1" offset="100%"></stop></linearGradient></defs><rect width="100%" height="100%" fill="hsl(238, 82%, 13%)"></rect><g fill="url(#ffflurry-grad)"><rect width="613" height="3" x="369.5" y="413.5" rx="1.5" transform="rotate(45, 676, 415)" opacity="0.20"></rect><rect width="439" height="3" x="79.5" y="376.5" rx="1.5" transform="rotate(45, 299, 378)" opacity="0.11"></rect><rect width="652" height="3" x="-52" y="752.5" rx="1.5" transform="rotate(45, 274, 754)" opacity="0.86"></rect><rect width="515" height="3" x="402.5" y="299.5" rx="1.5" transform="rotate(45, 660, 301)" opacity="0.37"></rect><rect width="369" height="3" x="31.5" y="218.5" rx="1.5" transform="rotate(45, 216, 220)" opacity="0.74"></rect><rect width="126" height="3" x="112" y="585.5" rx="1.5" transform="rotate(45, 175, 587)" opacity="0.20"></rect><rect width="113" height="3" x="557.5" y="29.5" rx="1.5" transform="rotate(45, 614, 31)" opacity="0.44"></rect><rect width="535" height="3" x="343.5" y="746.5" rx="1.5" transform="rotate(45, 611, 748)" opacity="0.52"></rect><rect width="150" height="3" x="416" y="218.5" rx="1.5" transform="rotate(45, 491, 220)" opacity="0.10"></rect><rect width="290" height="3" x="279" y="523.5" rx="1.5" transform="rotate(45, 424, 525)" opacity="0.78"></rect><rect width="42" height="3" x="148" y="443.5" rx="1.5" transform="rotate(45, 169, 445)" opacity="0.39"></rect><rect width="552" height="3" x="423" y="111.5" rx="1.5" transform="rotate(45, 699, 113)" opacity="0.64"></rect><rect width="59" height="3" x="731.5" y="216.5" rx="1.5" transform="rotate(45, 761, 218)" opacity="0.45"></rect><rect width="665" height="3" x="128.5" y="432.5" rx="1.5" transform="rotate(45, 461, 434)" opacity="0.80"></rect><rect width="355" height="3" x="221.5" y="771.5" rx="1.5" transform="rotate(45, 399, 773)" opacity="0.37"></rect><rect width="157" height="3" x="98.5" y="666.5" rx="1.5" transform="rotate(45, 177, 668)" opacity="0.85"></rect><rect width="412" height="3" x="-97" y="268.5" rx="1.5" transform="rotate(45, 109, 270)" opacity="0.07"></rect><rect width="453" height="3" x="528.5" y="340.5" rx="1.5" transform="rotate(45, 755, 342)" opacity="0.74"></rect><rect width="255" height="3" x="303.5" y="208.5" rx="1.5" transform="rotate(45, 431, 210)" opacity="0.74"></rect><rect width="63" height="3" x="459.5" y="557.5" rx="1.5" transform="rotate(45, 491, 559)" opacity="0.99"></rect><rect width="503" height="3" x="252.5" y="110.5" rx="1.5" transform="rotate(45, 504, 112)" opacity="0.96"></rect><rect width="115" height="3" x="-30.5" y="487.5" rx="1.5" transform="rotate(45, 27, 489)" opacity="0.83"></rect><rect width="76" height="3" x="316" y="74.5" rx="1.5" transform="rotate(45, 354, 76)" opacity="0.69"></rect><rect width="604" height="3" x="177" y="331.5" rx="1.5" transform="rotate(45, 479, 333)" opacity="0.41"></rect><rect width="342" height="3" x="154" y="561.5" rx="1.5" transform="rotate(45, 325, 563)" opacity="0.96"></rect><rect width="226" height="3" x="364" y="758.5" rx="1.5" transform="rotate(45, 477, 760)" opacity="0.85"></rect><rect width="410" height="3" x="-145" y="31.5" rx="1.5" transform="rotate(45, 60, 33)" opacity="0.67"></rect><rect width="154" height="3" x="451" y="735.5" rx="1.5" transform="rotate(45, 528, 737)" opacity="0.50"></rect><rect width="533" height="3" x="-219.5" y="217.5" rx="1.5" transform="rotate(45, 47, 219)" opacity="0.44"></rect><rect width="444" height="3" x="-169" y="318.5" rx="1.5" transform="rotate(45, 53, 320)" opacity="0.44"></rect><rect width="364" height="3" x="93" y="461.5" rx="1.5" transform="rotate(45, 275, 463)" opacity="0.58"></rect><rect width="552" height="3" x="151" y="622.5" rx="1.5" transform="rotate(45, 427, 624)" opacity="0.90"></rect><rect width="143" height="3" x="-8.5" y="567.5" rx="1.5" transform="rotate(45, 63, 569)" opacity="0.33"></rect><rect width="350" height="3" x="565" y="563.5" rx="1.5" transform="rotate(45, 740, 565)" opacity="0.41"></rect><rect width="219" height="3" x="208.5" y="245.5" rx="1.5" transform="rotate(45, 318, 247)" opacity="0.70"></rect><rect width="439" height="3" x="462.5" y="223.5" rx="1.5" transform="rotate(45, 682, 225)" opacity="0.56"></rect><rect width="174" height="3" x="64" y="225.5" rx="1.5" transform="rotate(45, 151, 227)" opacity="0.71"></rect><rect width="376" height="3" x="-141" y="736.5" rx="1.5" transform="rotate(45, 47, 738)" opacity="0.67"></rect><rect width="126" height="3" x="37" y="399.5" rx="1.5" transform="rotate(45, 100, 401)" opacity="0.95"></rect><rect width="76" height="3" x="733" y="30.5" rx="1.5" transform="rotate(45, 771, 32)" opacity="0.59"></rect><rect width="207" height="3" x="64.5" y="129.5" rx="1.5" transform="rotate(45, 168, 131)" opacity="0.83"></rect><rect width="57" height="3" x="624.5" y="532.5" rx="1.5" transform="rotate(45, 653, 534)" opacity="0.12"></rect><rect width="640" height="3" x="255" y="313.5" rx="1.5" transform="rotate(45, 575, 315)" opacity="0.14"></rect><rect width="57" height="3" x="284.5" y="657.5" rx="1.5" transform="rotate(45, 313, 659)" opacity="0.85"></rect><rect width="410" height="3" x="498" y="33.5" rx="1.5" transform="rotate(45, 703, 35)" opacity="0.23"></rect><rect width="270" height="3" x="432" y="530.5" rx="1.5" transform="rotate(45, 567, 532)" opacity="0.46"></rect><rect width="193" height="3" x="-6.5" y="485.5" rx="1.5" transform="rotate(45, 90, 487)" opacity="0.48"></rect><rect width="715" height="3" x="-171.5" y="350.5" rx="1.5" transform="rotate(45, 186, 352)" opacity="0.22"></rect><rect width="293" height="3" x="581.5" y="748.5" rx="1.5" transform="rotate(45, 728, 750)" opacity="0.91"></rect><rect width="100" height="3" x="3" y="639.5" rx="1.5" transform="rotate(45, 53, 641)" opacity="0.31"></rect><rect width="691" height="3" x="407.5" y="652.5" rx="1.5" transform="rotate(45, 753, 654)" opacity="0.22"></rect><rect width="146" height="3" x="177" y="612.5" rx="1.5" transform="rotate(45, 250, 614)" opacity="0.12"></rect><rect width="495" height="3" x="298.5" y="644.5" rx="1.5" transform="rotate(45, 546, 646)" opacity="0.66"></rect><rect width="485" height="3" x="-214.5" y="396.5" rx="1.5" transform="rotate(45, 28, 398)" opacity="0.20"></rect><rect width="181" height="3" x="283.5" y="214.5" rx="1.5" transform="rotate(45, 374, 216)" opacity="0.55"></rect><rect width="467" height="3" x="227.5" y="29.5" rx="1.5" transform="rotate(45, 461, 31)" opacity="0.26"></rect><rect width="348" height="3" x="-27" y="749.5" rx="1.5" transform="rotate(45, 147, 751)" opacity="0.38"></rect><rect width="53" height="3" x="552.5" y="84.5" rx="1.5" transform="rotate(45, 579, 86)" opacity="0.63"></rect><rect width="352" height="3" x="592" y="109.5" rx="1.5" transform="rotate(45, 768, 111)" opacity="0.13"></rect><rect width="193" height="3" x="548.5" y="639.5" rx="1.5" transform="rotate(45, 645, 641)" opacity="0.24"></rect><rect width="50" height="3" x="344" y="702.5" rx="1.5" transform="rotate(45, 369, 704)" opacity="0.72"></rect><rect width="483" height="3" x="41.5" y="43.5" rx="1.5" transform="rotate(45, 283, 45)" opacity="0.15"></rect><rect width="368" height="3" x="-154" y="132.5" rx="1.5" transform="rotate(45, 30, 134)" opacity="0.49"></rect><rect width="412" height="3" x="237" y="697.5" rx="1.5" transform="rotate(45, 443, 699)" opacity="0.77"></rect><rect width="468" height="3" x="406" y="154.5" rx="1.5" transform="rotate(45, 640, 156)" opacity="0.96"></rect><rect width="510" height="3" x="317" y="422.5" rx="1.5" transform="rotate(45, 572, 424)" opacity="0.16"></rect><rect width="211" height="3" x="-14.5" y="102.5" rx="1.5" transform="rotate(45, 91, 104)" opacity="0.47"></rect><rect width="124" height="3" x="162" y="504.5" rx="1.5" transform="rotate(45, 224, 506)" opacity="0.61"></rect><rect width="112" height="3" x="131" y="39.5" rx="1.5" transform="rotate(45, 187, 41)" opacity="0.46"></rect><rect width="238" height="3" x="137" y="284.5" rx="1.5" transform="rotate(45, 256, 286)" opacity="0.20"></rect><rect width="366" height="3" x="-35" y="530.5" rx="1.5" transform="rotate(45, 148, 532)" opacity="0.31"></rect><rect width="179" height="3" x="665.5" y="471.5" rx="1.5" transform="rotate(45, 755, 473)" opacity="0.74"></rect><rect width="566" height="3" x="80" y="465.5" rx="1.5" transform="rotate(45, 363, 467)" opacity="0.56"></rect><rect width="390" height="3" x="82" y="148.5" rx="1.5" transform="rotate(45, 277, 150)" opacity="0.93"></rect><rect width="264" height="3" x="436" y="205.5" rx="1.5" transform="rotate(45, 568, 207)" opacity="0.71"></rect><rect width="311" height="3" x="259.5" y="113.5" rx="1.5" transform="rotate(45, 415, 115)" opacity="0.77"></rect><rect width="321" height="3" x="222.5" y="329.5" rx="1.5" transform="rotate(45, 383, 331)" opacity="0.21"></rect></g></svg>